HIERARCHY
ROOT Hips
{
	OFFSET 0.000000 0.000000 0.000000 
	CHANNELS 6 Xposition Yposition Zposition Zrotation Yrotation Xrotation
	JOINT LeftUpLeg
	{
		OFFSET 1.363060 -1.794630 0.839290 
		CHANNELS 3 Zrotation Yrotation Xrotation
		JOINT LeftLeg
		{
			OFFSET 2.448110 -6.726130 0.000000 
			CHANNELS 3 Zrotation Yrotation Xrotation
			JOINT LeftFoot
			{
				OFFSET 2.562200 -7.039590 0.000000 
				CHANNELS 3 Zrotation Yrotation Xrotation
				JOINT LeftToeBase
				{
					OFFSET 0.157640 -0.433110 2.322550 
					CHANNELS 3 Zrotation Yrotation Xrotation
					End Site
					{
						OFFSET 0.000000 0.000000 0.000000 
					}
				}
			}
		}
	}
	JOINT RightUpLeg
	{
		OFFSET -1.305520 -1.794630 0.839290 
		CHANNELS 3 Zrotation Yrotation Xrotation
		JOINT RightLeg
		{
			OFFSET -2.542530 -6.985550 0.000000 
			CHANNELS 3 Zrotation Yrotation Xrotation
			JOINT RightFoot
			{
				OFFSET -2.568260 -7.056230 0.000000 
				CHANNELS 3 Zrotation Yrotation Xrotation
				JOINT RightToeBase
				{
					OFFSET -0.164730 -0.452590 2.363150 
					CHANNELS 3 Zrotation Yrotation Xrotation
					End Site
					{
						OFFSET 0.000000 0.000000 0.000000 
					}
				}
			}
		}
	}
	JOINT Spine
	{
		OFFSET 0.028270 2.035590 -0.193380 
		CHANNELS 3 Zrotation Yrotation Xrotation
		JOINT Spine1
		{
			OFFSET 0.056720 2.048850 -0.042750 
			CHANNELS 3 Zrotation Yrotation Xrotation
			JOINT Neck1
			{
				OFFSET -0.054170 1.746240 0.172020 
				CHANNELS 3 Zrotation Yrotation Xrotation
				JOINT Head
				{
					OFFSET 0.104070 1.761360 -0.123970 
					CHANNELS 3 Zrotation Yrotation Xrotation
					End Site
					{
						OFFSET 0.000000 0.000000 0.000000 
					}
				}
			}
			JOINT LeftArm
			{
				OFFSET 3.362410 1.200890 -0.311210 
				CHANNELS 3 Zrotation Yrotation Xrotation
				JOINT LeftForeArm
				{
					OFFSET 4.983000 -0.000000 -0.000000 
					CHANNELS 3 Zrotation Yrotation Xrotation
					JOINT LeftHand
					{
						OFFSET 3.483560 -0.000000 -0.000000 
						CHANNELS 3 Zrotation Yrotation Xrotation
						JOINT LeftHandIndex1
						{
							OFFSET 0.715260 -0.000000 -0.000000 
							CHANNELS 3 Zrotation Yrotation Xrotation
							End Site
							{
								OFFSET 0.000000 0.000000 0.000000 
							}
						}
					}
				}
			}
			JOINT RightArm
			{
				OFFSET -3.136600 1.374050 -0.404650 
				CHANNELS 3 Zrotation Yrotation Xrotation
				JOINT RightForeArm
				{
					OFFSET -5.241900 -0.000000 -0.000000 
					CHANNELS 3 Zrotation Yrotation Xrotation
					JOINT RightHand
					{
						OFFSET -3.444170 -0.000000 -0.000000 
						CHANNELS 3 Zrotation Yrotation Xrotation
						JOINT RightHandIndex1
						{
							OFFSET -0.622530 -0.000000 -0.000000 
							CHANNELS 3 Zrotation Yrotation Xrotation
							End Site
							{
								OFFSET 0.000000 0.000000 0.000000 
							}
						}
					}
				}
			}
		}
	}
}
MOTION
Frames: 12
Frame Time: 0.041667
-15.638322 15.524310 -1.249606 62.512058 84.683254 78.111212 -13.096056 6.266003 -35.046190 10.315149 19.300361 62.443636 1.603537 1.809902 -24.645975 0.996700 -6.353600 -17.813800 3.629886 1.178368 -59.898457 -10.782556 -19.289133 64.167263 -0.250588 -4.081728 -13.697328 -0.045600 1.377600 -3.788300 0.334945 -2.542058 0.251963 4.364530 -1.105997 -2.186208 -0.895768 7.274627 3.603902 -0.652500 2.326900 10.189300 -61.192601 -19.051090 43.776608 42.236410 -48.942409 -21.208370 0.195096 0.289506 -14.330305 -7.125000 0.000000 0.000000 60.860268 -3.076303 27.173830 -26.669020 37.944054 -10.615463 1.218853 0.838767 -13.257942 7.125000 0.000000 0.000000 
-15.484658 15.511373 -1.115400 62.130983 84.470902 77.520058 -12.676900 6.406749 -34.446671 10.522719 19.362483 63.069732 1.439617 2.099638 -23.919795 1.100700 -6.666300 -18.730500 3.842661 1.527489 -59.351587 -11.051873 -19.474136 65.058045 -0.309088 -3.993773 -14.697682 -0.054100 1.501300 -4.129200 0.271438 -2.496481 0.300759 3.921183 -1.066934 -2.047805 -1.098137 7.319533 3.590605 -0.734400 2.324500 10.212700 -61.674577 -18.675816 43.069262 38.663206 -47.101939 -18.585368 0.135923 0.252726 -13.837649 -7.125000 0.000000 0.000000 61.169753 -2.683478 27.731973 -27.076738 38.266591 -10.797983 1.222204 0.819798 -13.834711 7.125000 0.000000 0.000000 
-15.331626 15.505799 -0.982036 61.112730 84.197720 76.301548 -12.233079 6.596679 -34.086878 10.857662 19.469506 64.067814 1.226949 2.293564 -22.601020 1.256200 -7.105400 -20.028100 4.025830 1.995866 -58.756371 -11.276724 -19.643205 65.804555 -0.359022 -4.026604 -15.611869 -0.069200 1.697100 -4.669300 0.189732 -2.480612 0.344786 3.443405 -1.040358 -1.926123 -1.153071 7.478998 3.648006 -0.701900 2.379700 10.295200 -62.112250 -18.293067 42.032259 35.166668 -45.074923 -16.152594 0.077491 0.233056 -13.262096 -7.125000 0.000000 0.000000 61.511367 -2.229993 28.405890 -27.615119 38.681200 -11.042250 1.226366 0.792228 -14.515322 7.125000 0.000000 0.000000 
-15.177857 15.514213 -0.849618 59.912871 83.890437 74.892735 -11.739933 6.809502 -34.006026 11.311071 19.609167 65.412158 0.919121 2.603861 -20.609895 1.416300 -7.526500 -21.284900 4.178106 2.608556 -58.053852 -11.459313 -19.796083 66.414592 -0.401081 -4.159596 -16.462950 -0.084300 1.873200 -5.155400 0.219177 -2.522053 0.265446 3.521331 -1.045223 -2.184593 -1.281779 7.822996 3.624307 -0.685100 2.526400 10.165300 -63.032020 -17.243860 40.590216 32.090158 -43.159776 -14.138204 0.005144 0.210874 -12.694046 -7.125000 0.000000 0.000000 61.493919 -2.121591 29.396404 -28.055240 39.003697 -11.215897 1.220548 0.768124 -15.001737 7.125000 0.000000 0.000000 
-15.024510 15.529779 -0.718989 59.524407 83.578307 74.236496 -11.292710 7.025898 -34.156144 11.865233 19.772893 67.051922 0.527126 3.179553 -18.178476 1.390600 -7.460800 -21.087800 4.275637 3.173379 -57.211663 -11.611482 -19.934108 66.923770 -0.450717 -4.279422 -17.352394 -0.099200 2.031400 -5.592400 0.165051 -2.413755 0.284947 3.195039 -0.978341 -2.151714 -1.273236 7.865430 3.797937 -0.620800 2.522000 10.285200 -63.724023 -16.643973 39.352617 29.412697 -41.308687 -12.444641 -0.052943 0.195954 -12.242694 -7.125000 0.000000 0.000000 61.714729 -1.574478 29.865694 -28.316398 39.170994 -11.295013 1.221938 0.733982 -15.396853 7.125000 0.000000 0.000000 
-14.879997 15.544293 -0.596037 60.435227 83.407343 74.829913 -10.801738 7.077910 -34.582539 12.510883 19.949572 68.942859 0.029328 4.260124 -15.458778 1.274500 -7.154900 -20.175200 4.516257 3.433682 -56.364071 -11.741491 -20.037362 67.346644 -0.491567 -4.419019 -18.094746 -0.113400 2.171200 -5.979100 0.134369 -2.385960 0.305779 2.860493 -0.948809 -2.156522 -1.385909 7.950590 3.904107 -0.604700 2.527100 10.351200 -64.487495 -15.990504 37.921124 27.010246 -39.530567 -11.010772 -0.097880 0.196054 -11.402774 -7.125000 0.000000 0.000000 61.796131 -0.945943 30.413537 -28.681228 39.440629 -11.490329 1.239665 0.741040 -15.886565 7.125000 0.000000 0.000000 
-14.744213 15.560596 -0.484760 61.020068 83.458348 75.141864 -10.153496 7.137990 -35.334385 13.225596 20.102943 70.972020 -0.540600 5.816495 -12.582487 1.231700 -7.038400 -19.829200 5.016049 3.612557 -55.514646 -11.840269 -20.130345 67.666400 -0.524070 -4.615718 -18.765142 -0.125300 2.281800 -6.285200 0.011948 -2.312397 0.369887 1.892051 -0.867703 -2.076928 -1.513556 7.856167 4.068811 -0.658500 2.454500 10.552500 -64.762459 -15.456572 36.729452 25.096144 -37.988193 -9.891583 -0.149917 0.155717 -10.568114 -7.125000 0.000000 0.000000 62.325983 -0.180937 30.571990 -29.447780 40.051036 -12.000188 1.284886 0.767995 -16.344356 7.125000 0.000000 0.000000 
-14.608325 15.576793 -0.383475 61.005302 83.483929 74.894316 -9.574313 7.364456 -36.276612 13.950189 20.221600 72.961414 -1.110449 7.648395 -9.827475 1.099500 -6.662800 -18.720300 5.509431 3.838067 -54.652992 -11.916253 -20.208219 67.907933 -0.591635 -4.605923 -19.606056 -0.107400 2.113200 -5.818600 -0.027024 -2.287737 0.317455 1.328769 -0.808695 -2.354843 -1.903761 7.957578 3.956697 -0.869600 2.491800 10.415100 -65.309251 -14.087438 35.350800 23.781297 -36.966420 -9.191618 -0.191223 0.106925 -10.111690 -7.125000 0.000000 0.000000 62.404737 -0.085290 31.365519 -30.679902 41.010283 -12.796294 1.307523 0.813093 -17.089657 7.125000 0.000000 0.000000 
-14.474224 15.595094 -0.289867 61.866776 83.445564 75.525295 -9.179582 7.593684 -37.136621 14.582928 20.307894 74.712395 -1.326189 8.350691 -8.434428 1.250900 -7.090900 -19.984900 5.906972 3.920894 -53.787539 -11.970320 -20.260420 68.075232 -0.653303 -4.624025 -20.359153 -0.092400 1.960000 -5.395200 -0.003906 -2.349329 0.299914 1.135977 -0.820997 -2.477282 -2.286702 8.195581 3.782538 -1.007600 2.573700 10.268900 -66.129937 -12.736462 33.637214 22.848246 -36.263777 -8.754244 -0.204097 0.100012 -9.667298 -7.125000 0.000000 0.000000 62.046764 0.274665 32.418248 -31.639407 41.687958 -13.357747 1.317078 0.820317 -17.929111 7.125000 0.000000 0.000000 
-14.350642 15.613184 -0.205305 63.234064 83.386562 76.690870 -8.939912 7.697590 -37.933037 15.078976 20.366852 76.099272 -1.407052 8.597631 -7.666294 1.234700 -7.046600 -19.853400 6.179512 4.026142 -52.955942 -11.994548 -20.308534 68.159956 -0.675757 -4.960088 -20.983407 -0.120300 2.235600 -6.157200 -0.122554 -2.252373 0.410939 0.337251 -0.734082 -2.215311 -2.411499 8.015561 3.737683 -1.090300 2.482700 10.312300 -66.344640 -12.040709 32.582633 22.129643 -35.666780 -8.408667 -0.209923 0.105134 -9.191049 -7.125000 0.000000 0.000000 62.262093 1.207256 32.706871 -32.333556 42.162548 -13.784681 1.351988 0.796691 -18.572252 7.125000 0.000000 0.000000 
-14.235894 15.634746 -0.129683 64.560106 83.299789 77.872031 -8.795767 7.637303 -38.803661 15.354230 20.388314 76.879575 -1.336825 8.217725 -7.141159 1.357500 -7.375100 -20.831500 6.341473 4.261239 -52.140686 -11.983578 -20.346379 68.137886 -0.707474 -5.263536 -21.661664 -0.138900 2.402100 -6.618200 -0.202863 -2.263054 0.500762 -0.204588 -0.709808 -1.994498 -2.462387 7.962685 3.727725 -1.093800 2.445200 10.369600 -66.702061 -11.242790 31.586204 21.667273 -35.306887 -8.209936 -0.233735 0.111743 -9.164697 -7.125000 0.000000 0.000000 62.110850 2.083991 33.443544 -33.279924 42.812460 -14.403329 1.382273 0.815206 -19.374968 7.125000 0.000000 0.000000 
-14.126720 15.666614 -0.058163 66.430124 83.167763 79.741103 -8.734394 7.358102 -39.824530 15.407514 20.379266 77.069692 -0.992129 6.594156 -6.621552 1.417000 -7.528400 -21.290700 6.376550 4.525587 -51.436311 -11.944976 -20.364997 68.028722 -0.753962 -5.487943 -22.390418 -0.123000 2.260800 -6.226900 -0.253440 -2.209257 0.485113 -0.543802 -0.656082 -2.066805 -2.560065 7.804824 3.682003 -1.177200 2.377400 10.316300 -67.179030 -10.027898 31.001020 21.644648 -35.380982 -8.247132 -0.250447 0.108477 -10.092302 -7.125000 0.000000 0.000000 61.857690 2.395112 33.935941 -35.052728 44.020439 -15.670811 1.396323 0.885393 -19.313003 7.125000 0.000000 0.000000 
